<svg xmlns="http://www.w3.org/2000/svg" viewBox="0 0 520 220" role="img" aria-label="Gravity Run logo">
  <defs>
    <linearGradient id="gold" x1="0" x2="1" y1="0" y2="1">
      <stop offset="0%" stop-color="#FFD45E"/>
      <stop offset="55%" stop-color="#F5B61B"/>
      <stop offset="100%" stop-color="#F18A0A"/>
    </linearGradient>
    <filter id="glow" x="-20%" y="-20%" width="140%" height="140%">
      <feGaussianBlur stdDeviation="4" result="b"/>
      <feColorMatrix in="b" type="matrix" values="1 0 0 0 0.96 0 1 0 0 0.70 0 0 1 0 0.10 0 0 0 0.8 0"/>
      <feMerge><feMergeNode/><feMergeNode in="SourceGraphic"/></feMerge>
    </filter>
  </defs>
  <g transform="translate(8 6)">
    <g fill="none" stroke="#F7F7F3" stroke-linecap="round" opacity="0.95">
      <path d="M258 18c57 0 112 13 149 33 34 18 51 40 47 60-5 27-44 44-102 44" stroke-width="6"/>
      <path d="M229 14c76-6 164 9 215 36 46 24 65 56 56 89-7 27-33 51-72 70" stroke-width="4" opacity="0.9"/>
      <path d="M206 33c74-5 152 10 198 37 41 24 56 53 47 81-5 15-16 29-33 42" stroke-width="2.75" opacity="0.65"/>
    </g>
    <g transform="skewX(-12)">
      <text x="10" y="88" fill="#F7F7F3" font-family="Inter, Arial, sans-serif" font-size="76" font-style="italic" font-weight="900" letter-spacing="-4">GRAVITY</text>
      <text x="55" y="152" fill="url(#gold)" filter="url(#glow)" font-family="Inter, Arial, sans-serif" font-size="86" font-style="italic" font-weight="900" letter-spacing="-4">RUN</text>
    </g>
  </g>
</svg>
